HIERARCHY
ROOT joint_Root
{
	OFFSET 0.0 0.0 0.0
	CHANNELS 6 Xposition Yposition Zposition Zrotation Xrotation Yrotation 
	JOINT Hips
	{
		OFFSET -17.1583 93.1646 452.98
		CHANNELS 6 Xposition Yposition Zposition Zrotation Xrotation Yrotation 
		JOINT Spine
		{
			OFFSET 15.7357 0.0 0.0
			CHANNELS 6 Xposition Yposition Zposition Zrotation Xrotation Yrotation 
			JOINT Chest
			{
				OFFSET 8.98455 -0.406207 0.0
				CHANNELS 6 Xposition Yposition Zposition Zrotation Xrotation Yrotation 
				JOINT Neck
				{
					OFFSET 16.3773 0.0 0.0
					CHANNELS 6 Xposition Yposition Zposition Zrotation Xrotation Yrotation 
					JOINT Head
					{
						OFFSET 6.45672 0.0 0.0
						CHANNELS 6 Xposition Yposition Zposition Zrotation Xrotation Yrotation 
						End Site
						{
							OFFSET 0.0 0.0 0.0
						}
					}
				}
				JOINT Shoulder_L
				{
					OFFSET 12.9942 -0.242716 4.98039
					CHANNELS 6 Xposition Yposition Zposition Zrotation Xrotation Yrotation 
					JOINT UpperArm_L
					{
						OFFSET 5.34809 0.0 0.0
						CHANNELS 6 Xposition Yposition Zposition Zrotation Xrotation Yrotation 
						JOINT LowerArm_L
						{
							OFFSET 24.3286 1.87007e-05 0.0
							CHANNELS 6 Xposition Yposition Zposition Zrotation Xrotation Yrotation 
							JOINT Hand_L
							{
								OFFSET 22.2916 0.0 0.0
								CHANNELS 6 Xposition Yposition Zposition Zrotation Xrotation Yrotation 
								End Site
								{
									OFFSET 0.0 0.0 0.0
								}
							}
						}
					}
				}
				JOINT Shoulder_R
				{
					OFFSET 12.9945 -0.242716 -4.98039
					CHANNELS 6 Xposition Yposition Zposition Zrotation Xrotation Yrotation 
					JOINT UpperArm_R
					{
						OFFSET -5.34813 0.0 0.0
						CHANNELS 6 Xposition Yposition Zposition Zrotation Xrotation Yrotation 
						JOINT LowerArm_R
						{
							OFFSET -24.3289 0.000322201 0.0
							CHANNELS 6 Xposition Yposition Zposition Zrotation Xrotation Yrotation 
							JOINT Hand_R
							{
								OFFSET -22.2915 -0.000108084 0.0
								CHANNELS 6 Xposition Yposition Zposition Zrotation Xrotation Yrotation 
								End Site
								{
									OFFSET 0.0 0.0 0.0
								}
							}
						}
					}
				}
			}
		}
		JOINT UpperLeg_L
		{
			OFFSET -2.19248 -6.46944 0.0
			CHANNELS 6 Xposition Yposition Zposition Zrotation Xrotation Yrotation 
			JOINT LowerLeg_L
			{
				OFFSET 39.0811 0.0 -1.23785e-05
				CHANNELS 6 Xposition Yposition Zposition Zrotation Xrotation Yrotation 
				JOINT Foot_L
				{
					OFFSET 40.9854 0.0 -1.26872e-05
					CHANNELS 6 Xposition Yposition Zposition Zrotation Xrotation Yrotation 
					JOINT Toes_L
					{
						OFFSET 11.7543 0.0 0.0
						CHANNELS 6 Xposition Yposition Zposition Zrotation Xrotation Yrotation 
						End Site
						{
							OFFSET 0.0 0.0 0.0
						}
					}
				}
			}
		}
		JOINT UpperLeg_R
		{
			OFFSET -2.19251 6.46944 0.0
			CHANNELS 6 Xposition Yposition Zposition Zrotation Xrotation Yrotation 
			JOINT LowerLeg_R
			{
				OFFSET -39.0811 -0.00228153 -0.0401928
				CHANNELS 6 Xposition Yposition Zposition Zrotation Xrotation Yrotation 
				JOINT Foot_R
				{
					OFFSET -40.9854 0.0 0.0
					CHANNELS 6 Xposition Yposition Zposition Zrotation Xrotation Yrotation 
					JOINT Toes_R
					{
						OFFSET -11.7543 0.0 0.0
						CHANNELS 6 Xposition Yposition Zposition Zrotation Xrotation Yrotation 
						End Site
						{
							OFFSET 0.0 0.0 0.0
						}
					}
				}
			}
		}
	}
}
MOTION
Frames:	8
Frame Time:	0.0333333
0.000000 0.000000 0.000000 0.000000 0.000000 -0.000000 -4.724130 91.713100 -0.342857 84.174000 2.029750 5.106240 15.735700 0.000005 -0.000001 79.152900 87.338000 -76.789000 8.984550 -0.406207 -0.000000 -2.507910 -1.213400 4.701240 16.377300 -0.000001 -0.000001 9.461760 -2.649930 -8.964260 6.456720 -0.000001 -0.000000 2.131860 -8.439080 -17.710800 12.994200 -0.242716 4.980390 -92.781600 7.218130 -68.859000 5.348090 -0.000007 -0.000001 -74.606800 6.089380 -5.755210 24.328600 0.000019 0.000005 41.301700 -42.836200 -127.735000 22.291600 -0.000001 0.000005 43.640700 5.096370 5.196470 12.994500 -0.242716 -4.980390 88.484500 4.531390 -71.485800 -5.348130 -0.000001 -0.000004 -71.779200 30.436000 -2.996470 -24.328900 0.000322 -0.000009 2.106970 7.267960 -16.222500 -22.291500 -0.000108 -0.000004 1.426430 5.221650 2.170550 -2.192480 -6.469440 -0.000000 -170.361000 4.242570 -3.537220 39.081100 -0.000007 -0.000012 0.334847 -0.607112 28.879200 40.985400 -0.000006 -0.000013 -0.895215 11.503100 -76.611400 11.754300 -0.000000 0.000003 0.000155 0.164973 -9.885740 -2.192510 6.469440 -0.000001 -169.084000 7.307180 -176.120000 -39.081100 -0.002282 -0.040193 0.142388 -0.486587 15.949400 -40.985400 0.000008 0.000006 6.128380 -1.019700 -71.413500 -11.754300 -0.000006 -0.000006 -0.010175 0.272608 -5.497680
0.000000 0.000000 0.000000 0.000000 0.000000 -0.000000 -4.698250 91.713100 -0.323854 84.198100 2.052530 5.109060 15.735700 0.000005 -0.000001 79.180900 87.323000 -76.813700 8.984550 -0.406207 -0.000000 -2.477910 -1.216150 4.708070 16.377300 -0.000001 -0.000001 9.453600 -2.644720 -8.939680 6.456720 -0.000001 -0.000000 2.129770 -8.392390 -17.739400 12.994200 -0.242716 4.980390 -92.782200 7.217420 -68.853300 5.348090 -0.000007 -0.000001 -74.577000 6.008400 -5.687230 24.328600 0.000019 0.000005 41.180900 -42.812300 -127.841000 22.291600 -0.000001 0.000005 43.621900 5.087760 5.392200 12.994500 -0.242716 -4.980390 88.474000 4.560970 -71.479200 -5.348130 -0.000001 -0.000004 -71.801400 30.546000 -3.011190 -24.328900 0.000322 -0.000009 2.100470 7.220220 -16.275800 -22.291500 -0.000108 -0.000004 1.401530 5.220320 2.204480 -2.192480 -6.469440 -0.000000 -170.394000 4.257770 -3.546480 39.081100 -0.000007 -0.000012 0.331968 -0.600974 28.916200 40.985400 -0.000006 -0.000013 -1.104160 11.497800 -76.630900 11.754300 -0.000000 0.000003 -0.000204 0.170984 -9.641600 -2.192510 6.469440 -0.000001 -169.135000 7.327280 -176.114000 -39.081100 -0.002282 -0.040193 0.142323 -0.485366 15.980400 -40.985400 0.000008 0.000006 6.109740 -0.996474 -71.453900 -11.754300 -0.000006 -0.000006 -0.010223 0.272962 -5.483210
0.000000 0.000000 0.000000 0.000000 0.000000 -0.000000 -4.682300 91.710900 -0.313753 84.205800 2.063750 5.067790 15.735700 0.000005 -0.000001 79.313300 87.323600 -76.935300 8.984550 -0.406207 -0.000000 -2.476760 -1.204730 4.729900 16.377300 -0.000001 -0.000001 9.469720 -2.607840 -8.959370 6.456720 -0.000001 -0.000000 2.131500 -8.386490 -17.728900 12.994200 -0.242716 4.980390 -92.790700 7.244570 -68.866200 5.348090 -0.000007 -0.000001 -74.534900 5.945290 -5.697960 24.328600 0.000019 0.000005 41.547100 -42.999500 -127.581000 22.291600 -0.000001 0.000005 43.753000 5.073920 5.704860 12.994500 -0.242716 -4.980390 88.472100 4.572830 -71.501800 -5.348130 -0.000001 -0.000004 -71.851800 30.481700 -3.021390 -24.328900 0.000322 -0.000009 2.127790 7.331360 -16.240900 -22.291500 -0.000108 -0.000004 1.322580 5.222030 2.160700 -2.192480 -6.469440 -0.000000 -170.421000 4.279840 -3.573750 39.081100 -0.000007 -0.000012 0.334022 -0.605245 28.894100 40.985400 -0.000006 -0.000013 -0.958074 11.487200 -76.605100 11.754300 -0.000000 0.000003 0.000071 0.166419 -9.827010 -2.192510 6.469440 -0.000001 -169.142000 7.266410 -176.182000 -39.081100 -0.002282 -0.040193 0.144021 -0.489586 16.033300 -40.985400 0.000008 0.000006 6.090350 -1.030060 -71.470300 -11.754300 -0.000006 -0.000006 -0.010343 0.273851 -5.446850
0.000000 0.000000 0.000000 0.000000 0.000000 -0.000000 -4.667040 91.713900 -0.294149 84.232900 2.115160 5.040090 15.735700 0.000005 -0.000001 79.203100 87.328700 -76.827300 8.984550 -0.406207 -0.000000 -2.488570 -1.212990 4.725320 16.377300 -0.000001 -0.000001 9.489210 -2.606480 -8.945570 6.456720 -0.000001 -0.000000 2.140560 -8.343250 -17.725500 12.994200 -0.242716 4.980390 -92.779300 7.222070 -68.885500 5.348090 -0.000007 -0.000001 -74.562400 5.919650 -5.551100 24.328600 0.000019 0.000005 41.589400 -43.087500 -127.585000 22.291600 -0.000001 0.000005 43.712600 5.074780 5.685690 12.994500 -0.242716 -4.980390 88.460200 4.599580 -71.468200 -5.348130 -0.000001 -0.000004 -71.875600 30.549200 -3.000680 -24.328900 0.000322 -0.000009 2.126340 7.347000 -16.197900 -22.291500 -0.000108 -0.000004 1.320690 5.221650 2.170400 -2.192480 -6.469440 -0.000000 -170.465000 4.358980 -3.575640 39.081100 -0.000007 -0.000012 0.326934 -0.593039 28.868000 40.985400 -0.000006 -0.000013 -1.036280 11.438600 -76.608800 11.754300 -0.000000 0.000003 0.000065 0.166519 -9.822940 -2.192510 6.469440 -0.000001 -169.193000 7.333420 -176.189000 -39.081100 -0.002282 -0.040193 0.143472 -0.487839 16.028100 -40.985400 0.000008 0.000006 6.073400 -1.005810 -71.518400 -11.754300 -0.000006 -0.000006 -0.010500 0.275000 -5.399820
0.000000 0.000000 0.000000 0.000000 0.000000 -0.000000 -4.645720 91.712400 -0.279126 84.235200 2.087280 4.960130 15.735700 0.000005 -0.000001 79.309800 87.334400 -76.923700 8.984550 -0.406207 -0.000000 -2.498080 -1.202200 4.745950 16.377300 -0.000001 -0.000001 9.451240 -2.572560 -8.943500 6.456720 -0.000001 -0.000000 2.118270 -8.256380 -17.724300 12.994200 -0.242716 4.980390 -92.779800 7.212600 -68.856900 5.348090 -0.000007 -0.000001 -74.606500 5.839320 -5.505710 24.328600 0.000019 0.000005 41.996700 -43.303100 -127.301000 22.291600 -0.000001 0.000005 43.880600 5.057890 6.062110 12.994500 -0.242716 -4.980390 88.458500 4.606960 -71.477000 -5.348130 -0.000001 -0.000004 -71.896100 30.637200 -2.999480 -24.328900 0.000322 -0.000009 2.116920 7.313380 -16.199700 -22.291500 -0.000108 -0.000004 1.319430 5.219620 2.222380 -2.192480 -6.469440 -0.000000 -170.494000 4.450670 -3.636780 39.081100 -0.000007 -0.000012 0.327351 -0.594080 28.856400 40.985400 -0.000006 -0.000013 -0.975220 11.366400 -76.594200 11.754300 -0.000000 0.000003 0.000146 0.165121 -9.879710 -2.192510 6.469440 -0.000001 -169.221000 7.430180 -176.258000 -39.081100 -0.002282 -0.040193 0.144984 -0.492659 16.041900 -40.985400 0.000008 0.000006 6.075970 -0.892919 -71.545500 -11.754300 -0.000006 -0.000006 -0.010168 0.272558 -5.499720
0.000000 0.000000 0.000000 0.000000 0.000000 -0.000000 -4.624700 91.722100 -0.267138 84.251800 2.090620 4.893820 15.735700 0.000005 -0.000001 79.627100 87.341400 -77.240100 8.984550 -0.406207 -0.000000 -2.507050 -1.170940 4.748440 16.377300 -0.000001 -0.000001 9.451430 -2.535700 -8.931300 6.456720 -0.000001 -0.000000 2.045750 -8.253700 -17.712500 12.994200 -0.242716 4.980390 -92.797900 7.268600 -68.879900 5.348090 -0.000007 -0.000001 -74.613400 5.554150 -5.537240 24.328600 0.000019 0.000005 42.260400 -43.368100 -127.079000 22.291600 -0.000001 0.000005 44.130500 5.046500 6.313900 12.994500 -0.242716 -4.980390 88.448400 4.634980 -71.468800 -5.348130 -0.000001 -0.000004 -71.901400 30.659400 -2.953030 -24.328900 0.000322 -0.000009 2.097640 7.247680 -16.197000 -22.291500 -0.000108 -0.000004 1.379990 5.221080 2.185120 -2.192480 -6.469440 -0.000000 -170.521000 4.432260 -3.691590 39.081100 -0.000007 -0.000012 0.325759 -0.591668 28.836800 40.985400 -0.000006 -0.000013 -1.143700 11.326100 -76.554500 11.754300 -0.000000 0.000003 0.000041 0.166932 -9.806170 -2.192510 6.469440 -0.000001 -169.265000 7.471920 -176.273000 -39.081100 -0.002282 -0.040193 0.144313 -0.492190 15.984200 -40.985400 0.000008 0.000006 6.076460 -0.768995 -71.583300 -11.754300 -0.000006 -0.000006 -0.010362 0.273989 -5.441190
0.000000 0.000000 0.000000 0.000000 0.000000 -0.000000 -4.596690 91.720600 -0.232348 84.295400 2.101150 4.828810 15.735700 0.000005 -0.000001 79.480200 87.346100 -77.103600 8.984550 -0.406207 -0.000000 -2.518760 -1.181920 4.727420 16.377300 -0.000001 -0.000001 9.385880 -2.527440 -8.914150 6.456720 -0.000001 -0.000000 2.015740 -8.144550 -17.678000 12.994200 -0.242716 4.980390 -92.795700 7.261330 -68.875800 5.348090 -0.000007 -0.000001 -74.626400 5.250230 -5.425400 24.328600 0.000019 0.000005 42.242400 -43.318300 -127.071000 22.291600 -0.000001 0.000005 44.278900 5.051140 6.211810 12.994500 -0.242716 -4.980390 88.439400 4.667090 -71.487300 -5.348130 -0.000001 -0.000004 -71.909600 30.543300 -2.887510 -24.328900 0.000322 -0.000009 2.125640 7.349870 -16.186900 -22.291500 -0.000108 -0.000004 1.292590 5.220320 2.204620 -2.192480 -6.469440 -0.000000 -170.605000 4.469610 -3.709750 39.081100 -0.000007 -0.000012 0.324715 -0.590731 28.797500 40.985400 -0.000006 -0.000013 -1.039280 11.239200 -76.565300 11.754300 -0.000000 0.000003 0.000015 0.167374 -9.788210 -2.192510 6.469440 -0.000001 -169.349000 7.569650 -176.354000 -39.081100 -0.002282 -0.040193 0.145648 -0.494684 16.050600 -40.985400 0.000008 0.000006 6.063090 -0.668924 -71.600500 -11.754300 -0.000006 -0.000006 -0.010431 0.274500 -5.420290
0.000000 0.000000 0.000000 0.000000 0.000000 -0.000000 -4.555180 91.734600 -0.211329 84.325900 2.029140 4.719740 15.735700 0.000005 -0.000001 79.702300 87.361100 -77.317400 8.984550 -0.406207 -0.000000 -2.544990 -1.157600 4.744210 16.377300 -0.000001 -0.000001 9.333900 -2.476320 -8.933570 6.456720 -0.000001 -0.000000 1.963360 -8.091550 -17.664800 12.994200 -0.242716 4.980390 -92.811900 7.301160 -68.869600 5.348090 -0.000007 -0.000001 -74.664000 4.740820 -5.293040 24.328600 0.000019 0.000005 41.742800 -42.993900 -127.388000 22.291600 -0.000001 0.000005 44.190800 5.060200 6.011180 12.994500 -0.242716 -4.980390 88.452800 4.640530 -71.538000 -5.348130 -0.000001 -0.000004 -71.912800 30.501100 -2.853170 -24.328900 0.000322 -0.000009 2.131990 7.378290 -16.173800 -22.291500 -0.000108 -0.000004 1.254300 5.221640 2.170850 -2.192480 -6.469440 -0.000000 -170.643000 4.465560 -3.733260 39.081100 -0.000007 -0.000012 0.314066 -0.573807 28.694100 40.985400 -0.000006 -0.000013 -1.132730 11.261300 -76.452300 11.754300 -0.000000 0.000003 0.000252 0.163268 -9.954980 -2.192510 6.469440 -0.000001 -169.418000 7.619320 -176.375000 -39.081100 -0.002282 -0.040193 0.143946 -0.491763 15.957900 -40.985400 0.000008 0.000006 6.048790 -0.546929 -71.605400 -11.754300 -0.000006 -0.000006 -0.009984 0.271184 -5.555950
